{"title":"Irene Huss, The Glass Devil 2008 DVDrip Swedish Klam","uid":6891899,"size":1503358866,"categoryP":"video","categoryS":"movies","magnet":"?xt=urn:btih:465ba6c8258ba98baa61e9781355ef71627a08d8&amp;dn=Irene+Huss%2C+The+Glass+Devil+2008+DVDrip+Swedish+Klam&amp;tr=udp%3A%2F%2Ftracker.openbittorrent.com%3A80&amp;tr=udp%3A%2F%2Fopen.demonii.com%3A1337&amp;tr=udp%3A%2F%2Ftracker.coppersurfer.tk%3A6969&amp;tr=udp%3A%2F%2Fexodus.desync.com%3A6969","seeders":0,"leechers":0,"uploader":"Klambake","files":-1,"time":1324047844,"description":"With: Angela Kovacs, Lars Brandeby and Anki LidÃƒÂ©n\n\nPastor Sten Schyttelius, zijn vrouw en zijn zoon, zijn doodgeschoten. Is dit het werk van satanisten, zoals de aanwijzingen achtergelaten door de moordenaar aangeven?\n\nPastor Sten Schyttelius, his wife, and his son, a schoolteacher, have been shot dead. Could this be the work of a cult of Satanists, as the clues left by the murderer indicate? Detective Inspector Irene Huss is on the case. \n\nEnglish softsubs (srt) included.\n\n------------------------ Dutch Friends ------------------------\n---------------------------------------------------------------\n- Bezoek ook eens mijn vrienden op: &lt;a href=&quot; http://www.Film-Test.nl&quot; rel=&quot;nofollow&quot; target=&quot;_NEW&quot;&gt; http://www.Film-Test.nl&lt;/a&gt; --\n----- voor mijn Nederlandse Sync. ondertitels ---- en meer ----\n------- http://www.Film-Test.nl ---- voor Films en meer -------\n---------------------------------------------------------------\n\nGeneral:\n\nComplete name                    : Irene Huss, The Glass Devil\\The Glass Devil.avi\nFormat                           : AVI\nFormat/Info                      : Audio Video Interleave\nFile size                        : 1.40 GiB\nDuration                         : 1h 27mn\nOverall bit rate                 : 2 294 Kbps\n\nVideo:\n\nFormat                           : MPEG-4 Visual\nFormat profile                   : Simple@L3\nFormat settings, BVOP            : No\nFormat settings, QPel            : No\nFormat settings, GMC             : No warppoints\nFormat settings, Matrix          : Default (H.263)\nCodec ID                         : XVID\nCodec ID/Hint                    : XviD\nDuration                         : 1h 27mn\nBit rate                         : 1 835 Kbps\nWidth                            : 652 pixels\nHeight                           : 352 pixels\nDisplay aspect ratio             : 1.852\nFrame rate                       : 25.000 fps\nColor space                      : YUV\nChroma subsampling               : 4:2:0\nBit depth                        : 8 bits\nScan type                        : Progressive\nCompression mode                 : Lossy\nBits/(Pixel*Frame)               : 0.320\nStream size                      : 1.12 GiB (80%)\nWriting library                  : XviD 1.1.2 (UTC 2006-11-01)\n\nAudio:\n\nFormat                           : AC-3\nFormat/Info                      : Audio Coding 3\nMode extension                   : CM (complete main)\nCodec ID                         : 2000\nDuration                         : 1h 27mn\nBit rate mode                    : Constant\nBit rate                         : 448 Kbps\nChannel(s)                       : 6 channels\nChannel positions                : Front: L C R, Side: L R, LFE\nSampling rate                    : 48.0 KHz\nBit depth                        : 16 bits\nCompression mode                 : Lossy\nStream size                      : 280 MiB (20%)\nAlignment                        : Aligned on interleaves\nInterleave, duration             : 32 ms (0.80 video frame)\n","torrent":{"xt":"urn:btih:465ba6c8258ba98baa61e9781355ef71627a08d8","amp;dn":"Irene+Huss%2C+The+Glass+Devil+2008+DVDrip+Swedish+Klam","amp;tr":["udp%3A%2F%2Ftracker.openbittorrent.com%3A80","udp%3A%2F%2Fopen.demonii.com%3A1337","udp%3A%2F%2Ftracker.coppersurfer.tk%3A6969","udp%3A%2F%2Fexodus.desync.com%3A6969"],"infoHash":"465ba6c8258ba98baa61e9781355ef71627a08d8","infoHashBuffer":{"type":"Buffer","data":[70,91,166,200,37,139,169,139,170,97,233,120,19,85,239,113,98,122,8,216]},"announce":[],"urlList":[]}}